<svg xmlns="http://www.w3.org/2000/svg" xmlns:xlink="http://www.w3.org/1999/xlink" width="500" zoomAndPan="magnify" viewBox="0 0 375 374.999991" height="500" preserveAspectRatio="xMidYMid meet" version="1.0"><defs><g/><clipPath id="62a4c148c6"><path d="M 122.960938 160.363281 L 251.957031 160.363281 L 251.957031 214.363281 L 122.960938 214.363281 Z M 122.960938 160.363281 " clip-rule="nonzero"/></clipPath><clipPath id="537f4f2bff"><path d="M 122.957031 160.363281 L 169.171875 160.363281 L 169.171875 214.636719 L 122.957031 214.636719 Z M 122.957031 160.363281 " clip-rule="nonzero"/></clipPath></defs><rect x="-37.5" width="450" fill="#ffffff" y="-37.499999" height="449.999989" fill-opacity="1"/><rect x="-37.5" width="450" fill="#ffffff" y="-37.499999" height="449.999989" fill-opacity="1"/><g clip-path="url(#62a4c148c6)"><path stroke-linecap="butt" transform="matrix(0.75, 0, 0, 0.75, 122.960754, 160.364154)" fill="none" stroke-linejoin="miter" d="M 0.000244633 -0.00116403 L 172.104423 -0.00116403 L 172.104423 72.358216 L 0.000244633 72.358216 Z M 0.000244633 -0.00116403 " stroke="#000000" stroke-width="6" stroke-opacity="1" stroke-miterlimit="4"/></g><g clip-path="url(#537f4f2bff)"><path fill="#000000" d="M 122.957031 160.363281 L 169.171875 160.363281 L 169.171875 214.636719 L 122.957031 214.636719 Z M 122.957031 160.363281 " fill-opacity="1" fill-rule="nonzero"/></g><g fill="#ffffff" fill-opacity="1"><g transform="translate(126.294987, 204.752593)"><g><path d="M 11.6875 0.484375 C 8.164062 0.484375 5.660156 -0.441406 4.171875 -2.296875 C 2.691406 -4.148438 1.953125 -6.820312 1.953125 -10.3125 L 1.953125 -22 C 1.953125 -25.570312 2.6875 -28.269531 4.15625 -30.09375 C 5.625 -31.925781 8.132812 -32.84375 11.6875 -32.84375 C 15.070312 -32.84375 17.46875 -32.023438 18.875 -30.390625 C 20.289062 -28.765625 21 -26.460938 21 -23.484375 L 21 -20.6875 L 14 -20.6875 L 14 -23.921875 C 14 -25.171875 13.863281 -26.128906 13.59375 -26.796875 C 13.332031 -27.460938 12.695312 -27.796875 11.6875 -27.796875 C 10.664062 -27.796875 9.992188 -27.441406 9.671875 -26.734375 C 9.359375 -26.035156 9.203125 -25.054688 9.203125 -23.796875 L 9.203125 -8.5625 C 9.203125 -7.28125 9.367188 -6.296875 9.703125 -5.609375 C 10.035156 -4.929688 10.695312 -4.59375 11.6875 -4.59375 C 12.664062 -4.59375 13.296875 -4.929688 13.578125 -5.609375 C 13.859375 -6.296875 14 -7.28125 14 -8.5625 L 14 -11.953125 L 21 -11.953125 L 21 -9.15625 C 21 -6.113281 20.289062 -3.742188 18.875 -2.046875 C 17.46875 -0.359375 15.070312 0.484375 11.6875 0.484375 Z M 11.6875 0.484375 "/></g></g></g><g fill="#ffffff" fill-opacity="1"><g transform="translate(151.852727, 204.752593)"><g><path d="M 0.515625 -4.15625 C 1.554688 -4.15625 2.34375 -4.234375 2.875 -4.390625 C 3.414062 -4.554688 3.804688 -4.875 4.046875 -5.34375 C 4.285156 -5.8125 4.40625 -6.507812 4.40625 -7.4375 L 4.40625 -32.40625 L 11.5625 -32.40625 L 11.5625 -7.125 C 11.5625 -5.28125 11.332031 -3.785156 10.875 -2.640625 C 10.425781 -1.492188 9.644531 -0.625 8.53125 -0.03125 C 7.425781 0.550781 5.914062 0.84375 4 0.84375 L 0.515625 0.84375 Z M 0.515625 -4.15625 "/></g></g></g><g fill="#000000" fill-opacity="1"><g transform="translate(172.278202, 185.42016)"><g><path d="M 5.765625 0.1875 C 4.035156 0.1875 2.816406 -0.328125 2.109375 -1.359375 C 1.398438 -2.390625 1.046875 -3.816406 1.046875 -5.640625 L 1.046875 -11.828125 C 1.046875 -13.753906 1.390625 -15.210938 2.078125 -16.203125 C 2.773438 -17.203125 4.003906 -17.703125 5.765625 -17.703125 C 7.335938 -17.703125 8.46875 -17.273438 9.15625 -16.421875 C 9.84375 -15.578125 10.1875 -14.320312 10.1875 -12.65625 L 10.1875 -11.265625 L 7.859375 -11.265625 L 7.859375 -12.5 C 7.859375 -13.3125 7.820312 -13.929688 7.75 -14.359375 C 7.6875 -14.796875 7.503906 -15.144531 7.203125 -15.40625 C 6.910156 -15.664062 6.4375 -15.796875 5.78125 -15.796875 C 5.125 -15.796875 4.628906 -15.65625 4.296875 -15.375 C 3.972656 -15.09375 3.757812 -14.703125 3.65625 -14.203125 C 3.5625 -13.703125 3.515625 -13.035156 3.515625 -12.203125 L 3.515625 -5.25 C 3.515625 -4.351562 3.582031 -3.648438 3.71875 -3.140625 C 3.863281 -2.640625 4.097656 -2.28125 4.421875 -2.0625 C 4.753906 -1.84375 5.207031 -1.734375 5.78125 -1.734375 C 6.40625 -1.734375 6.867188 -1.867188 7.171875 -2.140625 C 7.472656 -2.421875 7.660156 -2.796875 7.734375 -3.265625 C 7.816406 -3.742188 7.859375 -4.394531 7.859375 -5.21875 L 7.859375 -6.515625 L 10.1875 -6.515625 L 10.1875 -5.21875 C 10.1875 -3.46875 9.859375 -2.128906 9.203125 -1.203125 C 8.546875 -0.273438 7.398438 0.1875 5.765625 0.1875 Z M 5.765625 0.1875 "/></g></g></g><g fill="#000000" fill-opacity="1"><g transform="translate(183.437198, 185.42016)"><g><path d="M 1.359375 -17.546875 L 4.890625 -17.546875 C 6.671875 -17.546875 7.976562 -17.179688 8.8125 -16.453125 C 9.644531 -15.722656 10.0625 -14.535156 10.0625 -12.890625 C 10.0625 -10.640625 9.335938 -9.273438 7.890625 -8.796875 L 10.375 0 L 8.015625 0 L 5.71875 -8.234375 L 3.8125 -8.234375 L 3.8125 0 L 1.359375 0 Z M 4.75 -9.984375 C 5.800781 -9.984375 6.550781 -10.191406 7 -10.609375 C 7.457031 -11.035156 7.6875 -11.796875 7.6875 -12.890625 C 7.6875 -13.617188 7.609375 -14.1875 7.453125 -14.59375 C 7.296875 -15.007812 7.015625 -15.3125 6.609375 -15.5 C 6.203125 -15.695312 5.628906 -15.796875 4.890625 -15.796875 L 3.8125 -15.796875 L 3.8125 -9.984375 Z M 4.75 -9.984375 "/></g></g></g><g fill="#000000" fill-opacity="1"><g transform="translate(194.682871, 185.42016)"><g><path d="M 4.046875 -6.203125 L 0.265625 -17.546875 L 2.53125 -17.546875 L 5.21875 -9.078125 L 7.859375 -17.546875 L 10.15625 -17.546875 L 6.390625 -6.203125 L 6.390625 0 L 4.046875 0 Z M 4.046875 -6.203125 "/></g></g></g><g fill="#000000" fill-opacity="1"><g transform="translate(205.105154, 185.42016)"><g><path d="M 1.359375 -17.546875 L 5.71875 -17.546875 C 7.238281 -17.546875 8.34375 -17.132812 9.03125 -16.3125 C 9.71875 -15.488281 10.0625 -14.285156 10.0625 -12.703125 C 10.0625 -11.265625 9.691406 -10.148438 8.953125 -9.359375 C 8.210938 -8.566406 7.144531 -8.171875 5.75 -8.171875 L 3.8125 -8.171875 L 3.8125 0 L 1.359375 0 Z M 4.9375 -9.921875 C 5.664062 -9.921875 6.226562 -10 6.625 -10.15625 C 7.019531 -10.320312 7.300781 -10.597656 7.46875 -10.984375 C 7.644531 -11.378906 7.734375 -11.941406 7.734375 -12.671875 C 7.734375 -13.566406 7.664062 -14.222656 7.53125 -14.640625 C 7.40625 -15.066406 7.148438 -15.363281 6.765625 -15.53125 C 6.390625 -15.707031 5.789062 -15.796875 4.96875 -15.796875 L 3.8125 -15.796875 L 3.8125 -9.921875 Z M 4.9375 -9.921875 "/></g></g></g><g fill="#000000" fill-opacity="1"><g transform="translate(215.505773, 185.42016)"><g><path d="M 3.296875 -15.734375 L 0.328125 -15.734375 L 0.328125 -17.546875 L 8.625 -17.546875 L 8.625 -15.734375 L 5.75 -15.734375 L 5.75 0 L 3.296875 0 Z M 3.296875 -15.734375 "/></g></g></g><g fill="#000000" fill-opacity="1"><g transform="translate(224.45464, 185.42016)"><g><path d="M 5.84375 0.1875 C 4.125 0.1875 2.894531 -0.296875 2.15625 -1.265625 C 1.414062 -2.242188 1.046875 -3.65625 1.046875 -5.5 L 1.046875 -12.15625 C 1.046875 -13.976562 1.421875 -15.359375 2.171875 -16.296875 C 2.921875 -17.234375 4.144531 -17.703125 5.84375 -17.703125 C 7.550781 -17.703125 8.773438 -17.226562 9.515625 -16.28125 C 10.265625 -15.332031 10.640625 -13.957031 10.640625 -12.15625 L 10.640625 -5.484375 C 10.640625 -3.660156 10.265625 -2.257812 9.515625 -1.28125 C 8.765625 -0.300781 7.539062 0.1875 5.84375 0.1875 Z M 5.84375 -1.734375 C 6.757812 -1.734375 7.375 -2 7.6875 -2.53125 C 8.007812 -3.070312 8.171875 -3.882812 8.171875 -4.96875 L 8.171875 -12.65625 C 8.171875 -13.726562 8.007812 -14.519531 7.6875 -15.03125 C 7.375 -15.539062 6.757812 -15.796875 5.84375 -15.796875 C 4.925781 -15.796875 4.304688 -15.539062 3.984375 -15.03125 C 3.671875 -14.519531 3.515625 -13.726562 3.515625 -12.65625 L 3.515625 -4.96875 C 3.515625 -3.882812 3.671875 -3.070312 3.984375 -2.53125 C 4.304688 -2 4.925781 -1.734375 5.84375 -1.734375 Z M 5.84375 -1.734375 "/></g></g></g><g fill="#000000" fill-opacity="1"><g transform="translate(172.278202, 206.420158)"><g><path d="M 0.15625 -1.34375 C 0.882812 -1.34375 1.425781 -1.410156 1.78125 -1.546875 C 2.132812 -1.679688 2.375 -1.929688 2.5 -2.296875 C 2.632812 -2.671875 2.703125 -3.242188 2.703125 -4.015625 L 2.703125 -17.546875 L 5.140625 -17.546875 L 5.140625 -3.96875 C 5.140625 -2.914062 5.03125 -2.070312 4.8125 -1.4375 C 4.59375 -0.8125 4.203125 -0.347656 3.640625 -0.046875 C 3.085938 0.253906 2.316406 0.40625 1.328125 0.40625 L 0.15625 0.40625 Z M 0.15625 -1.34375 "/></g></g></g><g fill="#000000" fill-opacity="1"><g transform="translate(178.800258, 206.420158)"><g><path d="M 5.84375 0.1875 C 4.125 0.1875 2.894531 -0.296875 2.15625 -1.265625 C 1.414062 -2.242188 1.046875 -3.65625 1.046875 -5.5 L 1.046875 -12.15625 C 1.046875 -13.976562 1.421875 -15.359375 2.171875 -16.296875 C 2.921875 -17.234375 4.144531 -17.703125 5.84375 -17.703125 C 7.550781 -17.703125 8.773438 -17.226562 9.515625 -16.28125 C 10.265625 -15.332031 10.640625 -13.957031 10.640625 -12.15625 L 10.640625 -5.484375 C 10.640625 -3.660156 10.265625 -2.257812 9.515625 -1.28125 C 8.765625 -0.300781 7.539062 0.1875 5.84375 0.1875 Z M 5.84375 -1.734375 C 6.757812 -1.734375 7.375 -2 7.6875 -2.53125 C 8.007812 -3.070312 8.171875 -3.882812 8.171875 -4.96875 L 8.171875 -12.65625 C 8.171875 -13.726562 8.007812 -14.519531 7.6875 -15.03125 C 7.375 -15.539062 6.757812 -15.796875 5.84375 -15.796875 C 4.925781 -15.796875 4.304688 -15.539062 3.984375 -15.03125 C 3.671875 -14.519531 3.515625 -13.726562 3.515625 -12.65625 L 3.515625 -4.96875 C 3.515625 -3.882812 3.671875 -3.070312 3.984375 -2.53125 C 4.304688 -2 4.925781 -1.734375 5.84375 -1.734375 Z M 5.84375 -1.734375 "/></g></g></g><g fill="#000000" fill-opacity="1"><g transform="translate(190.479285, 206.420158)"><g><path d="M 5.890625 0.1875 C 4.660156 0.1875 3.703125 -0.0546875 3.015625 -0.546875 C 2.335938 -1.035156 1.867188 -1.71875 1.609375 -2.59375 C 1.347656 -3.476562 1.21875 -4.585938 1.21875 -5.921875 L 1.21875 -17.546875 L 3.546875 -17.546875 L 3.546875 -5.8125 C 3.546875 -4.476562 3.703125 -3.460938 4.015625 -2.765625 C 4.328125 -2.078125 4.953125 -1.734375 5.890625 -1.734375 C 6.828125 -1.734375 7.453125 -2.078125 7.765625 -2.765625 C 8.078125 -3.460938 8.234375 -4.476562 8.234375 -5.8125 L 8.234375 -17.546875 L 10.546875 -17.546875 L 10.546875 -5.921875 C 10.546875 -4.585938 10.414062 -3.476562 10.15625 -2.59375 C 9.90625 -1.71875 9.4375 -1.035156 8.75 -0.546875 C 8.070312 -0.0546875 7.117188 0.1875 5.890625 0.1875 Z M 5.890625 0.1875 "/></g></g></g><g fill="#000000" fill-opacity="1"><g transform="translate(202.244989, 206.420158)"><g><path d="M 1.359375 -17.546875 L 4.890625 -17.546875 C 6.671875 -17.546875 7.976562 -17.179688 8.8125 -16.453125 C 9.644531 -15.722656 10.0625 -14.535156 10.0625 -12.890625 C 10.0625 -10.640625 9.335938 -9.273438 7.890625 -8.796875 L 10.375 0 L 8.015625 0 L 5.71875 -8.234375 L 3.8125 -8.234375 L 3.8125 0 L 1.359375 0 Z M 4.75 -9.984375 C 5.800781 -9.984375 6.550781 -10.191406 7 -10.609375 C 7.457031 -11.035156 7.6875 -11.796875 7.6875 -12.890625 C 7.6875 -13.617188 7.609375 -14.1875 7.453125 -14.59375 C 7.296875 -15.007812 7.015625 -15.3125 6.609375 -15.5 C 6.203125 -15.695312 5.628906 -15.796875 4.890625 -15.796875 L 3.8125 -15.796875 L 3.8125 -9.984375 Z M 4.75 -9.984375 "/></g></g></g><g fill="#000000" fill-opacity="1"><g transform="translate(213.490663, 206.420158)"><g><path d="M 1.359375 -17.546875 L 3.03125 -17.546875 L 8.015625 -5.890625 L 8.015625 -17.546875 L 10.0625 -17.546875 L 10.0625 0 L 8.5 0 L 3.453125 -11.984375 L 3.453125 0 L 1.359375 0 Z M 1.359375 -17.546875 "/></g></g></g><g fill="#000000" fill-opacity="1"><g transform="translate(224.931343, 206.420158)"><g><path d="M 4.140625 -17.546875 L 6.5 -17.546875 L 10.25 0 L 7.9375 0 L 7.125 -4.421875 L 3.546875 -4.421875 L 2.703125 0 L 0.40625 0 Z M 6.8125 -6.171875 L 5.328125 -14.09375 L 3.875 -6.171875 Z M 6.8125 -6.171875 "/></g></g></g><g fill="#000000" fill-opacity="1"><g transform="translate(235.591983, 206.420158)"><g><path d="M 1.359375 -17.546875 L 3.8125 -17.546875 L 3.8125 -1.75 L 8.296875 -1.75 L 8.296875 0 L 1.359375 0 Z M 1.359375 -17.546875 "/></g></g></g></svg>